; NON-PLATED HOLES START AT T1
; THROUGH (PLATED) HOLES START AT T100
M48
INCH
T100C0.038000
T101C0.042000
T102C0.035000
T103C0.025000
%
T100
X005433Y016906
X004433Y016906
T101
X002233Y017906
X002233Y018906
X002233Y016906
T102
X005433Y021506
X004433Y021506
X003433Y021506
X005433Y024506
X002433Y021506
X004433Y024506
X003433Y024506
X002433Y024506
T103
X037007Y019106
X035433Y019106
X021419Y019106
X026247Y006706
X019845Y019106
X036219Y019106
X022207Y019106
X034645Y019106
X020633Y019106
X027033Y006706
X025459Y006706
X027821Y006706
T00
M30
