; NON-PLATED HOLES START AT T1
; THROUGH (PLATED) HOLES START AT T100
M48
INCH
T100C0.035000
T101C0.025000
T102C0.038000
T103C0.042000
%
T100
X002433Y024506
X005433Y021506
X004433Y021506
X003433Y021506
X005433Y024506
X002433Y021506
X004433Y024506
X003433Y024506
T101
X028871Y019706
X041833Y019706
X031233Y019706
X041595Y009106
X031395Y009106
X040259Y019706
X016271Y019706
X029659Y019706
X017821Y009106
X018633Y019706
X019395Y009106
X017845Y019706
X040021Y009106
X017059Y019706
X041045Y019706
X017033Y009106
X040807Y009106
X030445Y019706
X030607Y009106
X039471Y019706
X039233Y009106
X029033Y009106
X018607Y009106
X029821Y009106
T102
X004433Y016906
X005433Y016906
T103
X002433Y018906
X002433Y016906
X002433Y017906
T00
M30
