G04 MADE WITH FRITZING*
G04 WWW.FRITZING.ORG*
G04 DOUBLE SIDED*
G04 HOLES PLATED*
G04 CONTOUR ON CENTER OF CONTOUR VECTOR*
%ASAXBY*%
%FSLAX23Y23*%
%MOIN*%
%OFA0B0*%
%SFA1.0B1.0*%
%ADD10C,0.085000*%
%ADD11C,0.092000*%
%ADD12C,0.088000*%
%ADD13C,0.075000*%
%ADD14R,0.085000X0.085000*%
%ADD15R,0.092000X0.092000*%
%ADD16R,0.088000X0.088000*%
%LNMASK0*%
G90*
G70*
G54D10*
X243Y2151D03*
X243Y2451D03*
X343Y2151D03*
X343Y2451D03*
X443Y2151D03*
X443Y2451D03*
X543Y2151D03*
X543Y2451D03*
G54D11*
X243Y1691D03*
X243Y1791D03*
X243Y1891D03*
G54D12*
X543Y1691D03*
X443Y1691D03*
G54D13*
X1863Y1971D03*
X1785Y1971D03*
X1706Y1971D03*
X1627Y1971D03*
X3123Y1971D03*
X3045Y1971D03*
X2966Y1971D03*
X2887Y1971D03*
X4183Y1971D03*
X4105Y1971D03*
X4026Y1971D03*
X3947Y1971D03*
X3923Y911D03*
X4002Y911D03*
X4081Y911D03*
X4160Y911D03*
X2903Y911D03*
X2982Y911D03*
X3061Y911D03*
X3140Y911D03*
X1703Y911D03*
X1782Y911D03*
X1861Y911D03*
X1940Y911D03*
G54D14*
X243Y2151D03*
G54D15*
X243Y1691D03*
G54D16*
X543Y1691D03*
G04 End of Mask0*
M02*